<?xml version="1.0" encoding="UTF-8" standalone="no"?><!DOCTYPE svg PUBLIC "-//W3C//DTD SVG 1.1//EN" "http://www.w3.org/Graphics/SVG/1.1/DTD/svg11.dtd"><svg width="100%" height="100%" viewBox="0 0 629 108" version="1.1" xmlns="http://www.w3.org/2000/svg" xmlns:xlink="http://www.w3.org/1999/xlink" xml:space="preserve" xmlns:serif="http://www.serif.com/" style="fill-rule:evenodd;clip-rule:evenodd;stroke-linecap:round;stroke-linejoin:round;stroke-miterlimit:1.5;"><g transform="matrix(78.3408,0,0,78.3408,576.118,106.422)"></g><text x="-0px" y="106.422px" style="font-family:'BPreplay';font-size:78.341px;">S<tspan x="44.498px 93.382px 136.235px 155.82px 203.608px 237.999px 264.009px 321.041px 368.829px 411.681px 454.533px 503.418px 545.722px " y="106.422px 106.422px 106.422px 106.422px 106.422px 106.422px 106.422px 106.422px 106.422px 106.422px 106.422px 106.422px 106.422px ">enior Connect</tspan></text><g id="Butterfly"><path d="M593.247,41.995c-0,0 2.66,-33.016 -4.611,-32.451c-1.437,0.014 -16.245,10.359 -13.451,14.549c3.261,4.89 12.19,15.657 10.52,14.051c-1.087,-1.045 -13.572,-17.829 -18.955,-4.487c0.087,3.019 -2.663,11.016 2.523,15.236c5.187,4.219 17.271,0.767 14.97,1.371c-1.926,2.126 -5.582,4.055 -4.153,4.903c0.926,0.55 3.857,-1.065 5.925,-2.361c-2.19,3.055 -2.799,13.298 1.488,16.346c1.42,1.01 9.057,2.83 11.415,2.768c2.282,1.091 12.968,-4.012 2.366,-16.516c11.334,9.664 10.853,9.739 13.514,9.266c1.397,-0.249 11.683,-8.683 12.719,-11.077c0.877,-2.027 -0.875,-4.999 -31.096,-9.117c0.629,-2.274 0.427,-1.63 0.427,-1.63c-0.167,-0.543 17.004,-4.944 8.627,-3.195c-7.114,1.484 -8.392,2.943 -8.627,3.195l-1.463,-1.82c0,-0 2.633,-19.253 1.937,-10.987c-0.696,8.265 -1.937,10.987 -1.937,10.987l-2.138,0.969Z" style="fill:url(#_Linear1);stroke:#fff;stroke-width:1px;"/><path d="M601.47,55.591l-8.426,-7.86" style="fill:none;stroke:#fff;stroke-width:1px;"/><path d="M585.981,38.348l4.105,5.487" style="fill:none;stroke:#fff;stroke-width:1px;"/><path d="M596.424,44.13c0.311,1.073 -5.018,4.638 -10.443,8.752" style="fill:url(#_Linear2);stroke:#fff;stroke-width:1px;"/><path d="M584.361,50.213c7.173,-7.872 6.392,-7.069 8.987,-8.31" style="fill:url(#_Linear3);stroke:#fff;stroke-width:1px;"/></g><g id="Butterfly1" serif:id="Butterfly"><path d="M534.863,28.125c0,0 -29.408,-15.242 -31.704,-8.319c-0.544,1.33 3.258,18.989 8.203,18.036c5.771,-1.112 19.156,-5.173 17.029,-4.256c-1.385,0.597 -21.694,5.606 -11.479,15.737c2.817,1.089 9.125,6.722 15.024,3.576c5.899,-3.147 7.397,-15.626 7.063,-13.27c1.214,2.599 1.576,6.717 2.911,5.728c0.866,-0.641 0.512,-3.968 0.119,-6.377c1.968,3.202 11.175,7.731 15.646,4.96c1.481,-0.918 6.117,-7.253 6.973,-9.452c1.89,-1.681 1.325,-13.509 -14.31,-8.579c13.301,-6.705 13.183,-6.233 13.777,-8.869c0.312,-1.384 -3.479,-14.135 -5.285,-16.017c-1.528,-1.594 -4.948,-1.13 -20.45,25.137c-1.853,-1.461 -1.337,-1.026 -1.337,-1.026c-0.566,-0.056 2.028,-17.59 0.395,-9.19c-1.386,7.133 -0.537,8.876 -0.395,9.19l-2.245,0.644c-0,-0 -16.73,-9.885 -9.379,-6.041c7.35,3.843 9.379,6.041 9.379,6.041l0.065,2.347Z" style="fill:url(#_Linear4);stroke:#fff;stroke-width:1px;"/><path d="M550.583,25.81l-10.511,4.724" style="fill:none;stroke:#fff;stroke-width:1px;"/><path d="M528.686,33.41l6.649,-1.658" style="fill:none;stroke:#fff;stroke-width:1px;"/><path d="M538.062,26.023c1.11,0.129 2.332,6.423 4.023,13.018" style="fill:url(#_Linear5);stroke:#fff;stroke-width:1px;"/><path d="M538.997,39.501c-4.479,-9.663 -4.041,-8.632 -4.179,-11.505" style="fill:url(#_Linear6);stroke:#fff;stroke-width:1px;"/></g><defs><linearGradient id="_Linear1" x1="0" y1="0" x2="1" y2="0" gradientUnits="userSpaceOnUse" gradientTransform="matrix(46.4043,56.7992,-56.7992,46.4043,571.875,18.1194)"><stop offset="0" style="stop-color:#7dc151;stop-opacity:0.57"/><stop offset="0.65" style="stop-color:#75ba49;stop-opacity:0.57"/><stop offset="1" style="stop-color:#479117;stop-opacity:0.57"/></linearGradient><linearGradient id="_Linear2" x1="0" y1="0" x2="1" y2="0" gradientUnits="userSpaceOnUse" gradientTransform="matrix(46.4043,56.7992,-56.7992,46.4043,571.875,18.1194)"><stop offset="0" style="stop-color:#7dc151;stop-opacity:0.57"/><stop offset="0.65" style="stop-color:#75ba49;stop-opacity:0.57"/><stop offset="1" style="stop-color:#479117;stop-opacity:0.57"/></linearGradient><linearGradient id="_Linear3" x1="0" y1="0" x2="1" y2="0" gradientUnits="userSpaceOnUse" gradientTransform="matrix(46.4043,56.7992,-56.7992,46.4043,571.875,18.1194)"><stop offset="0" style="stop-color:#7dc151;stop-opacity:0.57"/><stop offset="0.65" style="stop-color:#75ba49;stop-opacity:0.57"/><stop offset="1" style="stop-color:#479117;stop-opacity:0.57"/></linearGradient><linearGradient id="_Linear4" x1="0" y1="0" x2="1" y2="0" gradientUnits="userSpaceOnUse" gradientTransform="matrix(76.4765,-18.9479,18.9479,76.4765,504.82,41.6479)"><stop offset="0" style="stop-color:#a5e07e;stop-opacity:0.48"/><stop offset="0.46" style="stop-color:#91dd5f;stop-opacity:0.48"/><stop offset="1" style="stop-color:#5dd610;stop-opacity:0.48"/></linearGradient><linearGradient id="_Linear5" x1="0" y1="0" x2="1" y2="0" gradientUnits="userSpaceOnUse" gradientTransform="matrix(76.4765,-18.9479,18.9479,76.4765,504.82,41.6479)"><stop offset="0" style="stop-color:#a5e07e;stop-opacity:0.48"/><stop offset="0.46" style="stop-color:#91dd5f;stop-opacity:0.48"/><stop offset="1" style="stop-color:#5dd610;stop-opacity:0.48"/></linearGradient><linearGradient id="_Linear6" x1="0" y1="0" x2="1" y2="0" gradientUnits="userSpaceOnUse" gradientTransform="matrix(76.4765,-18.9479,18.9479,76.4765,504.82,41.6479)"><stop offset="0" style="stop-color:#a5e07e;stop-opacity:0.48"/><stop offset="0.46" style="stop-color:#91dd5f;stop-opacity:0.48"/><stop offset="1" style="stop-color:#5dd610;stop-opacity:0.48"/></linearGradient></defs></svg>